<?xml version="1.0" encoding="UTF-8"?>
<svg id="Layer_3" data-name="Layer 3" xmlns="http://www.w3.org/2000/svg" viewBox="0 0 384.35 120.54">
  <defs>
    <style>
      .cls-1 {
        fill: #fff;
      }
    </style>
  </defs>
  <g id="Layer_1" data-name="Layer 1">
    <g>
      <path class="cls-1" d="M98.84,0c-19.99,0-37.23,7.65-49.84,22.12-1.11,1.27-2.2,2.62-3.24,4.01l-.11.15-.19.02c-14.38,1.25-26.19,6.59-34.15,15.44C2.4,51.65-1.36,65.82.44,82.71c1.57,14.67,8.83,25.5,21,31.32,6.34,3.03,13.67,4.56,21.78,4.56,4.57,0,9.33-.5,14.13-1.49l.12-.02.11.04c6.15,2.2,13.35,3.35,21.41,3.42.27,0,.54,0,.81,0,39,0,59.05-23.94,59.88-24.96l.82-1.01c.56-.69.5-1.7-.15-2.31l-20.99-19.78c-.67-.63-1.71-.61-2.36.03l-.96.96c-.15.15-14.97,14.9-32.11,25.98-8.04,5.19-17.02,9.04-25.95,11.11l-.13.03-.13-.05c-4.78-1.99-8.81-4.79-11.96-8.31-9.43-10.51-10.1-25.73-9-36.64,1.12-11.12,5.63-23.51,12.07-33.14l.12-.18h.22c.89-.04,1.81-.06,2.73-.06h110.76c1.53,0,2.94-.82,3.69-2.16l15.5-27.52c.64-1.13-.18-2.53-1.48-2.53h-81.53ZM70.92,113.06c5.65-2.21,11.16-5.04,16.37-8.41,13.84-8.94,26.07-20.07,30.69-24.44l.29-.28.29.27,14.04,13.24.32.3-.32.31c-6.33,6.1-24.15,20.3-52.8,20.3-.25,0-.51,0-.76,0-2.79-.02-5.49-.19-8.02-.49l-1.68-.2,1.57-.62ZM40.69,33.85c-5.51,9.61-8.99,20.37-10.07,31.12-1.22,12.15-.38,29.2,10.55,41.39,1.69,1.89,3.6,3.61,5.66,5.13l.95.69-1.17.07c-1.19.07-2.38.11-3.54.11-7.16,0-13.54-1.31-18.96-3.9-10.13-4.84-16.19-13.97-17.52-26.4-1.64-15.32,1.5-27.49,9.32-36.19,5.77-6.41,14.18-10.79,24.34-12.65l.9-.16-.45.79ZM161.64,25.81l-.12.22H53.71l.63-.71c11.34-12.7,26.31-19.14,44.5-19.14h73.85l-.36.63-10.7,19Z"/>
      <g>
        <path class="cls-1" d="M217.07,55.16c-2.82,2.01-5.98,2.92-9.65,2.92-3.91,0-6.97-1.09-9.25-3.5-2.07-2.18-3.26-5.24-3.26-8.36,0-7.21,6.22-13.73,14.38-13.73,3.67,0,6.8,1.26,9.48,3.77l-3.33,3.06c-1.46-1.67-3.6-2.58-6.05-2.58-5.17,0-9.82,4.15-9.82,9.38,0,4.42,3.33,7.72,8.16,7.72,2.45,0,4.86-.78,6.66-2.21l2.69,3.54Z"/>
        <path class="cls-1" d="M237.54,33.09h3.88l6.05,24.41h-4.45l-1.29-5.24h-9.62l-2.82,5.24h-4.93l13.19-24.41ZM240.64,47.98l-1.97-8.02-4.32,8.02h6.29Z"/>
        <path class="cls-1" d="M259.37,33.09h4.96c2.41,0,4.35.14,6.25,1.43,1.77,1.19,2.65,2.92,2.65,5.17,0,3.43-2.04,5.92-6.09,6.87l5.34,10.95h-4.76l-5.2-10.67h-.44l-1.39,10.67h-4.59l3.26-24.41ZM262.63,42.85c3.64-.03,6.05-.34,6.05-3.03,0-2.41-2.18-2.52-5.3-2.52l-.75,5.54Z"/>
        <path class="cls-1" d="M287.45,33.09h4.15l4.15,17,8.43-17h3.94l.34,24.41h-4.28l-.21-14.62-7.24,14.62h-3.5l-3.71-15.33-3.91,15.33h-4.38l6.22-24.41Z"/>
        <path class="cls-1" d="M322.85,33.09h4.49l-3.4,24.41h-4.38l3.3-24.41Z"/>
        <path class="cls-1" d="M339.34,33.09h4.01l8.88,16.59,2.21-16.59h4.49l-3.3,24.41h-3.91l-8.97-16.79-2.24,16.79h-4.38l3.23-24.41Z"/>
        <path class="cls-1" d="M370.92,33.09h13.26l-.54,4.28h-8.64l-.71,5.07h8.67l-.54,4.28h-8.67l-.85,6.49h8.7l-.58,4.28h-13.29l3.2-24.41Z"/>
        <path class="cls-1" d="M218.6,88.22c-3.23,3.16-6.02,4.69-10.61,4.69-7.65,0-12.92-5.34-12.92-12.85s5.98-12.78,12.99-12.78c4.04,0,7.96,1.77,10.64,4.9l-3.26,3.13c-2.21-2.35-4.62-3.57-7.48-3.57-4.59,0-8.33,3.54-8.33,8.33,0,5.03,3.6,8.4,8.43,8.4,3.03,0,5.06-1.22,7.38-3.54l3.16,3.3Z"/>
        <path class="cls-1" d="M257.87,80.17c0,7.17-5.61,12.71-12.61,12.71s-12.78-5.71-12.78-12.82,5.78-12.78,12.71-12.78,12.68,5.44,12.68,12.88ZM237.17,80.17c0,4.96,3.74,8.26,8.06,8.26s7.96-3.64,7.96-8.29-3.37-8.4-8.02-8.4c-4.39,0-7.99,3.4-7.99,8.43Z"/>
        <path class="cls-1" d="M273.41,67.89h5.68c3.09,0,5.27.37,6.9,1.97,1.22,1.19,1.97,3.03,1.97,5.1,0,3.2-1.6,5.37-4.69,6.49l5.78,10.84h-5.06l-5.47-10.33h-.44v10.33h-4.66v-24.41ZM278.07,77.45h2.14c2.11,0,3.2-.85,3.2-2.52s-1.12-2.48-3.33-2.48h-2.01v5Z"/>
        <path class="cls-1" d="M303.37,67.89h4.66v24.41h-4.66v-24.41Z"/>
        <path class="cls-1" d="M324.11,67.89h4.45l10.47,16.05v-16.05h4.66v24.41h-4.49l-10.44-16.01v16.01h-4.66v-24.41Z"/>
        <path class="cls-1" d="M384.35,80.17c0,7.17-5.61,12.71-12.61,12.71s-12.78-5.71-12.78-12.82,5.78-12.78,12.71-12.78,12.68,5.44,12.68,12.88ZM363.65,80.17c0,4.96,3.74,8.26,8.06,8.26s7.96-3.64,7.96-8.29-3.37-8.4-8.02-8.4c-4.39,0-7.99,3.4-7.99,8.43Z"/>
      </g>
    </g>
  </g>
</svg>